<svg width="54" height="54" viewBox="0 0 54 54" fill="none" xmlns="http://www.w3.org/2000/svg">
<path d="M21.9375 14.985V17.8369H53.9705C53.9257 16.9172 53.8296 15.7545 53.4853 14.985" fill="#EC1C24"/>
<path d="M51.975 12.1331H21.9375V14.985H53.4853C53.1428 13.921 52.6331 12.9507 51.975 12.1331Z" fill="#E6E7E8"/>
<path d="M45.5625 9.28125H21.9375V12.1331H51.975C50.5668 10.3697 48.249 9.28125 45.5625 9.28125Z" fill="#EC1C24"/>
<path d="M53.9705 17.8369H21.9375V20.6888H54V18.7878C54 18.6182 53.989 18.4528 53.984 18.2866C53.9806 18.241 53.9755 18.1238 53.9705 17.8369Z" fill="#E6E7E8"/>
<path d="M21.9375 23.5406H54V20.6888H21.9375V23.5406Z" fill="#EC1C24"/>
<path d="M21.9375 26.3925H54V23.5406H21.9375V26.3925Z" fill="#E6E7E8"/>
<path d="M21.9375 26.3925H54V29.2444H21.9375V26.3925Z" fill="#EC1C24"/>
<path d="M0 29.2444V32.0963H54V29.2444H21.9375H0Z" fill="#E6E7E8"/>
<path d="M0 32.0963H54V34.9481H0V32.0963Z" fill="#EC1C24"/>
<path d="M0.00421875 36.7023C0.00421875 36.7023 -0.003375 37.3933 0.016875 37.8H53.9831C54.0067 37.3832 53.9958 36.7023 53.9958 36.7023L54 34.9481H0L0.00421875 36.7023Z" fill="#E6E7E8"/>
<path d="M8.4375 46.4063H45.5625C48.2566 46.4063 50.4959 45.4275 52.0256 43.5038H1.96594C3.54544 45.4697 5.82694 46.4063 8.43329 46.4063" fill="#EC1C24"/>
<path d="M1.97019 43.5037H52.0299C52.6972 42.6558 53.1956 41.6877 53.498 40.6519H0.510498C0.818549 41.6846 1.31486 42.6515 1.9744 43.5037" fill="#E6E7E8"/>
<path d="M0.506221 40.6519H53.4937C53.77 39.7242 53.9343 38.7667 53.9831 37.8H0.0168457C0.100377 38.7754 0.178002 39.512 0.506221 40.6519Z" fill="#EC1C24"/>
<path d="M21.9375 9.28125H8.4375C2.84597 9.28125 0 13.4367 0 18.5625V29.2444H21.9375V9.28125Z" fill="#176496"/>
<path d="M2.36087 14.3235L2.81987 13.9708L3.27802 14.3235L3.09999 13.7565L3.55646 13.4097H2.99283L2.81818 12.8402L2.64437 13.4097H2.08158L2.53974 13.7565L2.36087 14.3235ZM5.3933 14.3235L5.8523 13.9708L6.31046 14.3235L6.13327 13.7565L6.5889 13.4097H6.02612L5.85146 12.8402L5.67765 13.4097H5.11318L5.57133 13.7565L5.3933 14.3235ZM8.73877 14.3235L9.19693 13.9708L9.65593 14.3235L9.4779 13.7565L9.93352 13.4097H9.37411L9.19693 12.8402L9.02227 13.4097H8.46286L8.91596 13.7565L8.73877 14.3235ZM12.0598 14.3235L12.5179 13.9708L12.9769 14.3235L12.7997 13.7565L13.2554 13.4097H12.6901L12.5179 12.8402L12.3441 13.4097H11.7805L12.2378 13.7565L12.0598 14.3235ZM15.3926 14.3235L15.8516 13.9708L16.3097 14.3235L16.1326 13.7565L16.589 13.4097H16.0246L15.8507 12.8402L15.6769 13.4097H15.1141L15.5698 13.7565L15.3926 14.3235ZM3.97496 15.8043L4.43312 15.4524L4.89127 15.8043L4.71493 15.2381L5.17055 14.8913H4.60693L4.43227 14.3226L4.26099 14.8913H3.69568L4.15215 15.2381L3.97496 15.8043ZM7.00824 15.8043L7.4664 15.4524L7.92455 15.8043L7.74737 15.2381L8.20299 14.8913H7.63599L7.4664 14.3226L7.29174 14.8913H6.72896L7.18543 15.2381L7.00824 15.8043ZM10.3537 15.8043L10.811 15.4524L11.2692 15.8043L11.092 15.2381L11.5485 14.8913H10.9857L10.811 14.3226L10.6364 14.8913H10.0727L10.5292 15.2381L10.3537 15.8043ZM13.673 15.8043L14.132 15.4524L14.591 15.8043L14.4113 15.2381L14.8686 14.8913H14.3058L14.1312 14.3226L13.9582 14.8913H13.3946L13.8511 15.2381L13.673 15.8043ZM17.0101 15.8043L17.4648 15.4524L17.923 15.8043L17.7441 15.2381L18.2014 14.8913H17.6395L17.464 14.3226L17.291 14.8913H16.7274L17.1839 15.2381L17.0101 15.8043ZM18.8891 14.3235L19.3472 13.9708L19.8062 14.3235L19.6282 13.7565L20.0838 13.4097H19.5244L19.3464 12.8402L19.1726 13.4097H18.6047L19.0663 13.7565L18.8891 14.3235ZM2.31615 26.1731L2.77515 25.8246L3.2333 26.1731L3.05612 25.6112L3.51174 25.2636L2.94896 25.2652L2.77346 24.6966L2.60133 25.2652L2.03687 25.2636L2.49333 25.6112L2.31615 26.1731ZM5.34943 26.1731L5.80758 25.8246L6.26658 26.1731L6.08855 25.6112L6.54418 25.2636L5.98224 25.2652L5.80674 24.6966L5.63377 25.2652L5.07099 25.2636L5.52662 25.6112L5.34943 26.1731ZM8.6949 26.1731L9.15305 25.8246L9.61205 26.1731L9.43402 25.6112L9.88965 25.2636L9.32349 25.2652L9.15221 24.6966L8.9784 25.2652L8.41562 25.2636L8.87208 25.6112L8.6949 26.1731ZM12.0159 26.1731L12.4741 25.8246L12.9322 26.1731L12.7576 25.6112L13.2106 25.2636L12.647 25.2652L12.4732 24.6966L12.2994 25.2652L11.7366 25.2636L12.1922 25.6112L12.0159 26.1731ZM15.3479 26.1731L15.8069 25.8246L16.2659 26.1731L16.0904 25.6112L16.5435 25.2636L15.9807 25.2652L15.806 24.6966L15.6331 25.2652L15.0694 25.2636L15.5251 25.6112L15.3479 26.1731ZM18.8444 26.1731L19.3025 25.8246L19.7615 26.1731L19.5835 25.6112L20.04 25.2636L19.4738 25.2652L19.3017 24.6966L19.1279 25.2652L18.5626 25.2636L19.0216 25.6112L18.8444 26.1731ZM2.36087 17.2867L2.81987 16.9341L3.27802 17.2867L3.09999 16.7197L3.55646 16.373L2.99283 16.3746L2.81818 15.8043L2.64437 16.3746L2.08158 16.373L2.53974 16.7197L2.36087 17.2867ZM5.3933 17.2867L5.8523 16.9341L6.31046 17.2867L6.13327 16.7197L6.5889 16.373L6.02612 16.3746L5.85146 15.8043L5.67765 16.3746L5.11318 16.373L5.57133 16.7197L5.3933 17.2867ZM8.73877 17.2867L9.19693 16.9341L9.65593 17.2867L9.4779 16.7197L9.93352 16.373L9.37411 16.3746L9.19693 15.8043L9.02227 16.3746L8.46286 16.373L8.91596 16.7197L8.73877 17.2867ZM12.0598 17.2867L12.5179 16.9341L12.9769 17.2867L12.7997 16.7197L13.2554 16.373L12.6901 16.3746L12.5179 15.8043L12.3441 16.3746L11.7805 16.373L12.2378 16.7197L12.0598 17.2867ZM15.3926 17.2867L15.8516 16.9341L16.3097 17.2867L16.1326 16.7197L16.589 16.373L16.0246 16.3746L15.8507 15.8043L15.6769 16.3746L15.1141 16.373L15.5698 16.7197L15.3926 17.2867ZM3.97496 18.7684L4.43312 18.4165L4.89127 18.7684L4.71493 18.2022L5.17055 17.8537H4.60693L4.43227 17.2867L4.26099 17.8537H3.69568L4.15215 18.2022L3.97496 18.7684ZM7.00824 18.7684L7.4664 18.4165L7.92455 18.7684L7.74737 18.2022L8.20299 17.8537H7.63599L7.4664 17.2867L7.29174 17.8537H6.72896L7.18543 18.2022L7.00824 18.7684ZM10.3537 18.7684L10.811 18.4165L11.2692 18.7684L11.092 18.2022L11.5485 17.8537H10.9857L10.811 17.2867L10.6364 17.8537H10.0727L10.5292 18.2022L10.3537 18.7684ZM13.673 18.7684L14.132 18.4165L14.591 18.7684L14.4113 18.2022L14.8686 17.8537H14.3058L14.1312 17.2867L13.9582 17.8537H13.3946L13.8511 18.2022L13.673 18.7684ZM17.0101 18.7684L17.4648 18.4165L17.923 18.7684L17.7441 18.2022L18.2014 17.8537H17.6395L17.464 17.2867L17.291 17.8537H16.7274L17.1839 18.2022L17.0101 18.7684ZM18.8891 17.2867L19.3472 16.9341L19.8062 17.2867L19.6282 16.7197L20.0838 16.373L19.5244 16.3746L19.3464 15.8043L19.1726 16.3746L18.6047 16.373L19.0663 16.7197L18.8891 17.2867ZM2.31615 20.25L2.77515 19.8981L3.2333 20.25L3.05527 19.6847L3.51174 19.3371L2.94812 19.3387L2.77346 18.7684L2.60133 19.3387L2.03687 19.3371L2.49333 19.6847L2.31615 20.25ZM5.34943 20.25L5.80758 19.8981L6.26658 20.25L6.08855 19.6847L6.54418 19.3371L5.98224 19.3387L5.80674 18.7684L5.63377 19.3387L5.07099 19.3371L5.52577 19.6847L5.34943 20.25ZM8.6949 20.25L9.15305 19.8981L9.61121 20.25L9.43402 19.6847L9.88965 19.3371L9.32349 19.3387L9.15221 18.7684L8.9784 19.3387L8.41562 19.3371L8.87208 19.6847L8.6949 20.25ZM12.0159 20.25L12.4732 19.8981L12.9322 20.25L12.7576 19.6847L13.2106 19.3371L12.647 19.3387L12.4732 18.7684L12.2994 19.3387L11.7366 19.3371L12.1922 19.6847L12.0159 20.25ZM15.3479 20.25L15.8069 19.8981L16.265 20.25L16.0904 19.6847L16.5435 19.3371L15.9798 19.3387L15.806 18.7684L15.6331 19.3387L15.0694 19.3371L15.5251 19.6847L15.3479 20.25ZM3.93024 21.7316L4.3884 21.3806L4.84655 21.7316L4.67021 21.1697L5.12499 20.8204H4.56137L4.38755 20.25L4.21458 20.8204H3.65096L4.10743 21.1697L3.93024 21.7316ZM6.96352 21.7316L7.42168 21.3806L7.87983 21.7316L7.70265 21.1697L8.15827 20.8204H7.5938L7.42083 20.25L7.24702 20.8204H6.6834L7.14071 21.1697L6.96352 21.7316ZM10.3098 21.7316L10.7663 21.3806L11.2253 21.7316L11.0447 21.1697L11.5037 20.8204H10.941L10.7663 20.25L10.5925 20.8204H10.0289L10.4853 21.1697L10.3098 21.7316ZM13.6266 21.7316L14.0873 21.3806L14.5463 21.7316L14.3691 21.1697L14.8239 20.8204H14.2611L14.0865 20.25L13.9135 20.8204H13.3499L13.8063 21.1697L13.6266 21.7316ZM16.9594 21.7316L17.4201 21.3806L17.8791 21.7316L17.7011 21.1697L18.1584 20.8204H17.5956L17.4201 20.25L17.2463 20.8204H16.6827L17.1391 21.1697L16.9594 21.7316ZM18.8444 20.25L19.3025 19.8981L19.7607 20.25L19.5835 19.6847L20.04 19.3371L19.4738 19.3387L19.3017 18.7684L19.1279 19.3387L18.5626 19.3371L19.0216 19.6847L18.8444 20.25ZM2.31615 23.2141L2.77515 22.8656L3.2333 23.2141L3.05527 22.6479L3.51174 22.3003L2.94812 22.302L2.77346 21.7316L2.60133 22.302L2.03687 22.3003L2.49333 22.6479L2.31615 23.2141ZM5.34943 23.2141L5.80758 22.8656L6.26658 23.2141L6.08855 22.6479L6.54418 22.3003L5.98224 22.302L5.80674 21.7316L5.63377 22.302L5.07099 22.3003L5.52577 22.6479L5.34943 23.2141ZM8.6949 23.2141L9.15305 22.8656L9.61121 23.2141L9.43402 22.6479L9.88965 22.3003L9.32349 22.302L9.15221 21.7316L8.9784 22.302L8.41562 22.3003L8.87208 22.6479L8.6949 23.2141ZM12.0159 23.2141L12.4732 22.8656L12.9322 23.2141L12.7576 22.6479L13.2106 22.3003L12.647 22.302L12.4732 21.7316L12.2994 22.302L11.7366 22.3003L12.1922 22.6479L12.0159 23.2141ZM15.3479 23.2141L15.8069 22.8656L16.265 23.2141L16.0904 22.6479L16.5435 22.3003L15.9798 22.302L15.806 21.7316L15.6331 22.302L15.0694 22.3003L15.5251 22.6479L15.3479 23.2141ZM3.93024 24.6966L4.3884 24.3439L4.84655 24.6966L4.67021 24.1296L5.12499 23.7853H4.56137L4.38755 23.2141L4.21458 23.7853H3.65096L4.10743 24.1296L3.93024 24.6966ZM6.96352 24.6966L7.42168 24.3439L7.87983 24.6966L7.70265 24.1296L8.15827 23.7853H7.5938L7.42083 23.2141L7.24702 23.7853H6.6834L7.14071 24.1296L6.96352 24.6966ZM10.3098 24.6966L10.7663 24.3439L11.2253 24.6966L11.0447 24.1296L11.5037 23.7853H10.941L10.7663 23.2141L10.5925 23.7853H10.0289L10.4853 24.1296L10.3098 24.6966ZM13.6266 24.6966L14.0873 24.3439L14.5463 24.6966L14.3691 24.1296L14.8239 23.7853H14.2611L14.0865 23.2141L13.9135 23.7853H13.3499L13.8063 24.1296L13.6266 24.6966ZM16.9594 24.6966L17.4201 24.3439L17.8791 24.6966L17.7011 24.1296L18.1584 23.7853H17.5956L17.4201 23.2141L17.2463 23.7853H16.6827L17.1391 24.1296L16.9594 24.6966ZM18.8444 23.2141L19.3025 22.8656L19.7607 23.2141L19.5835 22.6479L20.04 22.3003L19.4738 22.302L19.3017 21.7316L19.1279 22.302L18.5626 22.3003L19.0216 22.6479L18.8444 23.2141Z" fill="white"/>
</svg>
